<svg xmlns="http://www.w3.org/2000/svg" viewBox="0 0 1325 524"><defs><style>.a{fill:#fede9a;}.b{fill:#e0be76;}</style></defs><g transform="translate(-298 -582)"><rect class="a" width="1325" height="524" transform="translate(298 582)"/><g transform="translate(812.487 736.841)"><path class="b" d="M24.032,22A17.086,17.086,0,0,0,7,39.032V158.255a17.086,17.086,0,0,0,17.032,17.032,4.258,4.258,0,1,0,8.516,0h8.516a4.258,4.258,0,1,0,8.516,0H58.1a4.258,4.258,0,1,0,8.516,0h8.516a4.258,4.258,0,1,0,8.516,0h8.516a4.258,4.258,0,1,0,8.516,0h8.516a4.258,4.258,0,1,0,8.516,0h8.516a4.258,4.258,0,1,0,8.516,0h8.516a4.258,4.258,0,1,0,8.516,0h8.516a4.258,4.258,0,1,0,8.516,0h8.516a4.258,4.258,0,1,0,8.516,0h8.516a4.258,4.258,0,1,0,8.516,0h8.516a4.258,4.258,0,1,0,8.516,0h8.516a4.258,4.258,0,1,0,8.516,0h8.516a4.258,4.258,0,1,0,8.516,0h8.516a4.258,4.258,0,1,0,8.516,0,17.086,17.086,0,0,0,17.032-17.032V39.032A17.086,17.086,0,0,0,270.993,22Zm0,8.516H270.993a8.448,8.448,0,0,1,8.516,8.516V158.255a8.448,8.448,0,0,1-8.516,8.516H24.032a8.448,8.448,0,0,1-8.516-8.516V39.032A8.448,8.448,0,0,1,24.032,30.516ZM53.837,43.29A4.258,4.258,0,1,0,58.1,47.548,4.266,4.266,0,0,0,53.837,43.29Zm17.032,0a4.258,4.258,0,1,0,4.258,4.258A4.266,4.266,0,0,0,70.869,43.29Zm17.032,0a4.258,4.258,0,1,0,4.258,4.258A4.266,4.266,0,0,0,87.9,43.29Zm17.032,0a4.258,4.258,0,1,0,4.258,4.258A4.266,4.266,0,0,0,104.933,43.29Zm17.032,0a4.258,4.258,0,1,0,4.258,4.258A4.266,4.266,0,0,0,121.965,43.29Zm17.032,0a4.258,4.258,0,1,0,4.258,4.258A4.266,4.266,0,0,0,139,43.29Zm17.032,0a4.258,4.258,0,1,0,4.258,4.258A4.266,4.266,0,0,0,156.028,43.29Zm17.032,0a4.258,4.258,0,1,0,4.258,4.258A4.266,4.266,0,0,0,173.06,43.29Zm17.032,0a4.258,4.258,0,1,0,4.258,4.258A4.266,4.266,0,0,0,190.092,43.29Zm17.032,0a4.258,4.258,0,1,0,4.258,4.258A4.266,4.266,0,0,0,207.124,43.29Zm17.032,0a4.258,4.258,0,1,0,4.258,4.258A4.266,4.266,0,0,0,224.156,43.29Zm17.032,0a4.258,4.258,0,1,0,4.258,4.258A4.266,4.266,0,0,0,241.187,43.29ZM193.951,82.826c-9,0-14.8,6.054-14.8,15.817s5.738,15.817,14.8,15.817c9.014,0,14.77-6.054,14.77-15.817S202.966,82.826,193.951,82.826Zm-141.644.815v30h14.42c6.421,0,10.462-3.393,10.462-8.649a7.151,7.151,0,0,0-6.952-7.086v-.4a6.468,6.468,0,0,0,5.589-6.387c0-4.657-3.543-7.485-9.531-7.485Zm32.484,0V103.3c0,6.719,5.14,11.16,12.94,11.16,7.784,0,12.907-4.441,12.907-11.16V83.641H103v18.844c0,3.493-1.9,5.539-5.273,5.539-3.393,0-5.306-2.062-5.306-5.539V83.641Zm131.714,0v30h7.235V96.6h.4l12.524,17.048h6.054v-30h-7.235v16.882h-.4L222.592,83.641Zm-98.282.017v6.121h8.649v23.868h7.6V89.778h8.666V83.657Zm30.837,0v6.121h8.649v23.868h7.618V89.778h8.666V83.657ZM59.942,89.013h4.324c2.595,0,4.125,1.3,4.125,3.443,0,2.112-1.63,3.41-4.424,3.41H59.942Zm134.009.133c4.208,0,7,3.709,7,9.5s-2.778,9.5-7,9.5c-4.258,0-7.036-3.709-7.036-9.5S189.726,89.146,193.951,89.146ZM59.942,100.506h4.574c3.16,0,4.923,1.38,4.923,3.825,0,2.545-1.73,3.925-4.89,3.925H59.942Zm-6.1,44.975a4.258,4.258,0,1,0,4.258,4.258A4.266,4.266,0,0,0,53.837,145.481Zm17.032,0a4.258,4.258,0,1,0,4.258,4.258A4.266,4.266,0,0,0,70.869,145.481Zm17.032,0a4.258,4.258,0,1,0,4.258,4.258A4.266,4.266,0,0,0,87.9,145.481Zm17.032,0a4.258,4.258,0,1,0,4.258,4.258A4.266,4.266,0,0,0,104.933,145.481Zm17.032,0a4.258,4.258,0,1,0,4.258,4.258A4.266,4.266,0,0,0,121.965,145.481Zm17.032,0a4.258,4.258,0,1,0,4.258,4.258A4.266,4.266,0,0,0,139,145.481Zm17.032,0a4.258,4.258,0,1,0,4.258,4.258A4.266,4.266,0,0,0,156.028,145.481Zm17.032,0a4.258,4.258,0,1,0,4.258,4.258A4.266,4.266,0,0,0,173.06,145.481Zm17.032,0a4.258,4.258,0,1,0,4.258,4.258A4.266,4.266,0,0,0,190.092,145.481Zm17.032,0a4.258,4.258,0,1,0,4.258,4.258A4.266,4.266,0,0,0,207.124,145.481Zm17.032,0a4.258,4.258,0,1,0,4.258,4.258A4.266,4.266,0,0,0,224.156,145.481Zm17.032,0a4.258,4.258,0,1,0,4.258,4.258A4.266,4.266,0,0,0,241.187,145.481ZM36.806,183.8a4.258,4.258,0,1,0,4.258,4.258A4.266,4.266,0,0,0,36.806,183.8Zm17.032,0A4.258,4.258,0,1,0,58.1,188.06,4.266,4.266,0,0,0,53.837,183.8Zm17.032,0a4.258,4.258,0,1,0,4.258,4.258A4.266,4.266,0,0,0,70.869,183.8Zm17.032,0a4.258,4.258,0,1,0,4.258,4.258A4.266,4.266,0,0,0,87.9,183.8Zm17.032,0a4.258,4.258,0,1,0,4.258,4.258A4.266,4.266,0,0,0,104.933,183.8Zm17.032,0a4.258,4.258,0,1,0,4.258,4.258A4.266,4.266,0,0,0,121.965,183.8Zm17.032,0a4.258,4.258,0,1,0,4.258,4.258A4.266,4.266,0,0,0,139,183.8Zm17.032,0a4.258,4.258,0,1,0,4.258,4.258A4.266,4.266,0,0,0,156.028,183.8Zm17.032,0a4.258,4.258,0,1,0,4.258,4.258A4.266,4.266,0,0,0,173.06,183.8Zm17.032,0a4.258,4.258,0,1,0,4.258,4.258A4.266,4.266,0,0,0,190.092,183.8Zm17.032,0a4.258,4.258,0,1,0,4.258,4.258A4.266,4.266,0,0,0,207.124,183.8Zm17.032,0a4.258,4.258,0,1,0,4.258,4.258A4.266,4.266,0,0,0,224.156,183.8Zm17.032,0a4.258,4.258,0,1,0,4.258,4.258A4.266,4.266,0,0,0,241.187,183.8Zm17.032,0a4.258,4.258,0,1,0,4.258,4.258A4.266,4.266,0,0,0,258.219,183.8Z" transform="translate(0 0)"/></g></g></svg>